<?xml version="1.0" standalone="no"?>
<!DOCTYPE svg PUBLIC "-//W3C//DTD SVG 20010904//EN"
 "http://www.w3.org/TR/2001/REC-SVG-20010904/DTD/svg10.dtd">
<svg version="1.0" xmlns="http://www.w3.org/2000/svg"
 width="335.000000pt" height="335.000000pt" viewBox="0 0 335.000000 335.000000"
 preserveAspectRatio="xMidYMid meet">
<metadata>
Created by potrace 1.11, written by Peter Selinger 2001-2013
</metadata>
<g transform="translate(0.000000,335.000000) scale(0.100000,-0.100000)"
fill="#000000" stroke="none">
<path d="M1105 3189 c-128 -24 -251 -77 -265 -115 -10 -26 7 -75 30 -89 6 -4
-15 -25 -47 -47 -78 -53 -142 -117 -218 -213 -129 -164 -195 -331 -220 -551
-6 -55 -4 -64 17 -89 20 -22 32 -27 67 -27 36 1 42 -2 36 -16 -38 -99 -65
-272 -64 -417 0 -210 32 -364 109 -520 80 -161 128 -196 202 -144 16 12 30 20
31 18 1 -2 18 -35 37 -73 74 -144 193 -254 348 -322 98 -43 124 -43 189 1 l53
35 132 -66 132 -66 127 62 126 63 62 -38 c60 -38 64 -38 106 -27 172 46 335
180 422 347 20 39 37 71 38 73 2 2 20 -6 41 -17 21 -12 46 -21 56 -21 75 0
206 276 237 504 26 189 6 418 -55 606 -4 12 3 15 39 12 39 -3 47 0 67 25 20
25 22 35 16 103 -21 236 -116 434 -302 630 -47 48 -108 103 -137 121 -29 18
-54 34 -56 36 -3 2 8 16 22 31 58 61 23 111 -110 155 -235 78 -469 55 -654
-64 l-48 -31 -43 30 c-132 91 -350 132 -523 101z m149 -373 c18 -7 49 -28 70
-46 36 -32 38 -33 79 -20 140 43 325 53 452 24 125 -29 124 -29 153 -1 39 38
93 57 159 57 163 0 270 -170 203 -319 -26 -56 -25 -63 6 -113 73 -116 108
-244 127 -465 l13 -151 -31 25 c-16 14 -45 32 -62 40 l-33 13 0 88 c0 112 -12
154 -61 206 -50 55 -89 66 -238 66 -163 0 -210 -19 -253 -104 -19 -37 -20 -47
-9 -213 6 -95 11 -212 11 -259 0 -78 -2 -85 -17 -79 -79 32 -252 33 -311 1
-19 -10 -36 -15 -38 -13 -3 2 1 107 7 233 14 273 14 296 -5 332 -42 80 -99
102 -264 102 -113 0 -133 -3 -172 -22 -24 -13 -58 -40 -74 -61 -30 -38 -31
-43 -34 -155 l-4 -117 -50 -28 c-42 -24 -49 -25 -45 -10 3 10 8 61 12 113 12
184 40 293 106 418 21 41 39 80 39 87 0 8 -9 29 -20 48 -27 45 -35 120 -21
175 15 53 73 119 126 143 48 22 133 24 179 5z m113 -686 c54 -33 56 -43 44
-244 -18 -293 -15 -401 11 -455 27 -56 125 -157 162 -167 34 -8 33 -16 -11
-65 -50 -55 -110 -95 -185 -123 -57 -22 -71 -23 -153 -15 -133 12 -213 44
-299 120 -129 114 -183 286 -140 441 21 72 69 128 144 167 l55 28 5 124 c8
190 27 208 220 209 97 0 120 -3 147 -20z m873 5 c61 -32 70 -55 70 -190 0
-130 3 -138 50 -150 51 -13 105 -59 133 -114 23 -46 27 -67 27 -135 -1 -148
-39 -245 -135 -342 -95 -97 -201 -140 -354 -146 -73 -3 -83 0 -156 36 -74 37
-175 120 -175 144 0 6 22 21 50 33 56 24 113 82 141 143 16 35 19 66 19 218 0
97 -5 233 -11 302 -12 143 -3 177 54 201 46 20 248 20 287 0z m-478 -1056 c32
-22 88 -53 124 -68 l66 -28 -61 -31 c-82 -41 -158 -56 -256 -49 -86 6 -144 23
-212 63 l-43 25 87 44 c56 28 106 62 137 94 l49 49 25 -29 c13 -17 51 -48 84
-70z"/>
<path d="M1125 2726 c-17 -7 -43 -28 -58 -45 -22 -26 -27 -43 -27 -86 0 -56
15 -79 47 -73 14 2 19 16 23 54 7 70 23 87 76 81 49 -5 74 6 74 34 0 13 -11
25 -35 35 -42 17 -61 17 -100 0z"/>
<path d="M2110 2729 c-66 -27 -43 -82 30 -72 55 8 80 -15 80 -72 0 -74 57 -91
74 -22 15 59 -17 126 -74 155 -48 24 -71 26 -110 11z"/>
<path d="M1159 1981 c-38 -38 -40 -91 -5 -126 50 -50 119 -41 151 19 51 95
-70 183 -146 107z"/>
<path d="M978 1535 c-15 -9 -31 -27 -34 -42 -20 -77 159 -110 227 -42 25 25
24 41 -6 69 -21 20 -39 25 -93 27 -46 2 -75 -1 -94 -12z"/>
<path d="M2064 1998 c-51 -24 -62 -105 -20 -147 59 -59 156 -17 156 67 -1 72
-69 113 -136 80z"/>
<path d="M2205 1541 c-34 -14 -57 -47 -50 -70 20 -63 179 -77 230 -21 24 26
13 66 -25 85 -31 16 -121 19 -155 6z"/>
</g>
</svg>
