<svg height="512pt" viewBox="-38 0 512 512.00025" width="512pt" xmlns="http://www.w3.org/2000/svg"><path d="m245.605469 504.386719h-54.742188l1.808594-71.324219.386719-15.222656 5.582031-219.878906h39.191406l3.207031 126.289062.386719 15.222656.679688 26.894532.386719 15.222656zm0 0" fill="#e89a5e"/><path d="m245.605469 504.386719h-20.296875l-7.773438-306.425781h20.296875zm0 0" fill="#d68a5a"/><path d="m412.917969 299.730469c-.519531 6.71875-7.863281 10.605469-13.699219 7.238281l-157.042969-90.667969-24.609375-14.210937c36.921875-32.453125 91.824219-39.457032 136.742188-13.519532 12.828125 7.410157 23.75 16.867188 32.558594 27.726563 19.078124 23.476563 28.34375 53.484375 26.050781 83.433594zm0 0" fill="#83b832"/><path d="m386.867188 216.296875h-144.691407l-24.609375-14.207031c36.921875-32.453125 91.824219-39.457032 136.742188-13.519532 12.828125 7.410157 23.75 16.867188 32.558594 27.726563zm0 0" fill="#7aa82d"/><path d="m427.320312 202.089844h-209.753906c15.75-46.5625 59.796875-80.082032 111.664063-80.082032 14.820312 0 29.007812 2.738282 42.066406 7.734376 28.246094 10.796874 51.28125 32.148437 64.261719 59.234374 2.914062 6.070313-1.5 13.113282-8.238282 13.113282zm0 0" fill="#8ec737"/><path d="m371.296875 129.742188-114.039063 65.832031-11.285156 6.515625h-28.40625c15.75-46.5625 59.796875-80.082032 111.664063-80.082032 14.820312 0 29.007812 2.738282 42.066406 7.734376zm0 0" fill="#7aa82d"/><path d="m399.226562 97.214844-149.074218 86.058594-32.578125 18.816406c-9.640625-48.195313 11.742187-99.242188 56.671875-125.183594 0 0 .011718 0 .011718-.011719 40.582032-23.421875 89.304688-19.96875 125.558594 4.84375 5.5625 3.804688 5.246094 12.105469-.589844 15.476563zm0 0" fill="#a4e540"/><path d="m275.65625 97.773438c0 30.921874-8.898438 60.351562-25.503906 85.5l-32.578125 18.816406c-9.640625-48.195313 11.742187-99.242188 56.671875-125.183594 0 0 .011718 0 .011718-.011719.933594 6.882813 1.398438 13.855469 1.398438 20.878907zm0 0" fill="#8ec737"/><path d="m218.90625 202.089844-24.609375 14.207031-157.042969 90.667969c-5.832031 3.371094-13.183594-.515625-13.699218-7.234375-2.292969-29.949219 6.972656-59.957031 26.050781-83.433594 8.808593-10.859375 19.730469-20.316406 32.558593-27.726563 44.917969-25.9375 99.820313-18.933593 136.742188 13.519532zm0 0" fill="#8ec737"/><path d="m218.90625 202.089844-24.609375 14.207031h-144.691406c8.808593-10.859375 19.730469-20.316406 32.558593-27.726563 44.917969-25.9375 99.820313-18.933593 136.742188 13.519532zm0 0" fill="#83b832"/><path d="m218.90625 202.089844h-209.753906c-6.738282 0-11.152344-7.042969-8.238282-13.113282 12.976563-27.085937 36.003907-48.4375 64.25-59.234374 13.070313-4.996094 27.25-7.734376 42.074219-7.734376 51.871094 0 95.917969 33.519532 111.667969 80.082032zm0 0" fill="#a4e540"/><path d="m218.90625 202.089844h-28.4375l-11.253906-6.496094-114.050782-65.851562c13.070313-4.996094 27.25-7.734376 42.074219-7.734376 51.871094 0 95.917969 33.519532 111.667969 80.082032zm0 0" fill="#8ec737"/><path d="m218.894531 202.089844-32.574219-18.804688-149.074218-86.070312c-5.835938-3.371094-6.152344-11.671875-.589844-15.476563 36.25-24.8125 84.976562-28.265625 125.558594-4.84375 0 .011719.011718.011719.011718.011719 44.925782 25.941406 66.3125 76.988281 56.667969 125.183594zm0 0" fill="#bdeb73"/><path d="m218.894531 202.089844-32.574219-18.804688c-16.605468-25.140625-25.503906-54.578125-25.503906-85.515625 0-7.019531.464844-13.992187 1.398438-20.875 0 .011719.011718.011719.011718.011719 44.925782 25.941406 66.3125 76.988281 56.667969 125.183594zm0 0" fill="#a4e540"/><path d="m261.453125 97.769531c0 39.96875-16.574219 76.058594-43.214844 101.792969-26.644531-25.726562-43.21875-61.824219-43.21875-101.792969 0-36.429687 13.769531-69.644531 36.382813-94.722656 3.664062-4.0625 10.007812-4.0625 13.671875.003906 22.609375 25.078125 36.378906 58.289063 36.378906 94.71875zm0 0" fill="#d3f1a3"/><path d="m261.449219 97.773438c0 39.964843-16.574219 76.054687-43.214844 101.789062-3.429687-3.316406-6.695313-6.808594-9.769531-10.453125 20.855468-24.648437 33.429687-56.527344 33.429687-91.335937 0-34.820313-12.574219-66.6875-33.441406-91.339844.964844-1.144532 1.949219-2.273438 2.953125-3.390625 3.664062-4.058594 10.007812-4.058594 13.667969 0 22.613281 25.089843 36.375 58.296875 36.375 94.730469zm0 0" fill="#bdeb73"/><path d="m221.171875 197.117188c0 17.273437-14.007813 31.277343-31.28125 31.277343-17.277344 0-31.28125-14.003906-31.28125-31.277343 0-17.277344 14.003906-31.28125 31.28125-31.28125 17.273437 0 31.28125 14.003906 31.28125 31.28125zm0 0" fill="#ffaf50"/><path d="m276.164062 212.265625c0 18.929687-15.347656 34.277344-34.273437 34.277344-18.929687 0-34.277344-15.347657-34.277344-34.277344 0-18.925781 15.347657-34.273437 34.277344-34.273437 18.925781 0 34.273437 15.347656 34.273437 34.273437zm0 0" fill="#ffce8b"/><path d="m276.167969 212.269531c0 18.925781-15.351563 34.273438-34.28125 34.273438-3.613281 0-7.085938-.558594-10.359375-1.601563 13.867187-4.386718 23.914062-17.359375 23.914062-32.671875 0-15.320312-10.046875-28.292969-23.914062-32.679687 3.273437-1.042969 6.746094-1.601563 10.359375-1.601563 18.929687 0 34.28125 15.351563 34.28125 34.28125zm0 0" fill="#ffaf50"/><g fill="#c47047"><path d="m219.25 425.453125c0 4.210937-3.410156 7.609375-7.609375 7.609375h-18.96875l.386719-15.222656h18.582031c4.199219 0 7.609375 3.410156 7.609375 7.613281zm0 0"/><path d="m242.492188 381.589844h-21.910157c-4.203125 0-7.613281-3.410156-7.613281-7.609375 0-4.203125 3.410156-7.613281 7.613281-7.613281h21.523438zm0 0"/><path d="m241.425781 339.472656h-13.546875c-4.203125 0-7.613281-3.410156-7.613281-7.613281 0-4.199219 3.410156-7.609375 7.613281-7.609375h13.164063zm0 0"/></g><path d="m344.324219 496.777344h-10.359375l1.304687-7.992188c.675781-4.148437-2.136719-8.0625-6.289062-8.738281-4.148438-.675781-8.058594 2.136719-8.738281 6.285156l-1.699219 10.445313h-8.34375l-1.699219-10.445313c-.679688-4.148437-4.59375-6.960937-8.738281-6.285156-4.152344.675781-6.964844 4.589844-6.289063 8.738281l1.304688 7.992188h-141.738282c-4.203124 0-7.609374 3.40625-7.609374 7.609375 0 4.207031 3.40625 7.613281 7.609374 7.613281h191.285157c4.203125 0 7.613281-3.40625 7.613281-7.613281 0-4.203125-3.410156-7.609375-7.613281-7.609375zm0 0" fill="#a4e540"/></svg>