<?xml version="1.0" standalone="no"?>
<!DOCTYPE svg PUBLIC "-//W3C//DTD SVG 20010904//EN"
 "http://www.w3.org/TR/2001/REC-SVG-20010904/DTD/svg10.dtd">
<svg version="1.0" xmlns="http://www.w3.org/2000/svg"
 width="260.000000pt" height="260.000000pt" viewBox="0 0 260.000000 260.000000"
 preserveAspectRatio="xMidYMid meet">
<metadata>
Created by potrace 1.11, written by Peter Selinger 2001-2013
</metadata>
<g transform="translate(0.000000,260.000000) scale(0.100000,-0.100000)"
fill="#000000" stroke="none">
<path d="M1223 2440 c-66 -14 -102 -37 -194 -126 -48 -46 -100 -89 -116 -95
-15 -7 -77 -15 -138 -19 -130 -8 -170 -24 -255 -106 -89 -85 -112 -136 -120
-269 -4 -60 -12 -123 -19 -138 -6 -16 -50 -69 -96 -117 -109 -113 -129 -155
-128 -270 0 -113 22 -158 134 -276 98 -102 109 -127 109 -240 0 -116 20 -164
106 -254 93 -97 140 -119 268 -127 131 -7 150 -15 246 -108 122 -117 150 -130
280 -130 127 0 143 7 250 110 119 113 123 116 257 126 143 12 183 28 269 110
91 88 112 137 123 281 10 134 12 139 126 258 96 100 108 124 113 237 6 123
-16 172 -131 291 -95 99 -103 117 -110 248 -8 128 -30 175 -127 268 -91 86
-138 106 -256 106 -106 0 -144 18 -243 113 -47 46 -106 93 -131 104 -52 25
-155 36 -217 23z m186 -95 c18 -9 70 -52 115 -95 111 -106 143 -121 280 -129
61 -4 122 -13 136 -20 14 -7 53 -41 88 -75 73 -71 92 -119 92 -231 0 -112 19
-153 122 -263 50 -52 97 -110 104 -128 19 -46 18 -167 -2 -207 -9 -18 -51 -68
-94 -112 -106 -109 -121 -143 -130 -280 -8 -126 -20 -157 -89 -228 -70 -74
-107 -89 -236 -97 -137 -9 -171 -24 -280 -131 -44 -43 -97 -85 -117 -94 -42
-17 -153 -20 -192 -5 -14 5 -69 50 -122 99 -112 105 -166 131 -269 131 -117 0
-159 15 -231 83 -88 82 -97 101 -104 232 -9 141 -26 178 -140 299 -80 85 -89
99 -100 150 -13 62 -6 124 18 171 8 16 50 67 94 112 101 105 119 146 128 283
7 121 19 150 90 220 70 71 99 83 220 90 137 9 178 27 283 128 85 82 112 100
162 113 45 12 137 3 174 -16z"/>
<path d="M1200 2113 c-301 -40 -559 -244 -665 -526 -154 -411 45 -868 451
-1037 120 -50 199 -63 349 -57 97 3 148 10 200 27 276 88 486 309 555 585 29
112 29 292 2 396 -93 351 -398 599 -751 613 -58 2 -122 2 -141 -1z m248 -59
c298 -61 528 -285 598 -582 23 -97 21 -267 -5 -363 -44 -169 -151 -328 -286
-425 -26 -18 -34 -22 -24 -9 9 11 27 40 40 65 27 54 30 146 7 201 -35 80 -137
167 -243 205 l-60 22 -31 114 c-38 137 -46 153 -87 178 -38 24 -68 25 -105 6
-46 -24 -59 -47 -94 -175 l-35 -123 -52 -19 c-113 -39 -192 -100 -236 -181
-25 -45 -30 -64 -30 -123 1 -73 16 -116 59 -164 l21 -24 -23 12 c-12 6 -52 40
-88 74 -103 96 -171 206 -215 347 -20 63 -24 96 -24 210 0 113 4 147 23 210
80 255 264 444 510 524 114 38 257 45 380 20z m-108 -642 c14 -12 31 -51 51
-122 16 -58 29 -105 29 -105 0 0 -54 0 -120 0 l-119 0 6 25 c49 202 88 254
153 202z m-230 -326 c0 -32 29 -67 105 -122 l65 -48 0 -69 0 -69 -27 7 c-16 3
-45 20 -66 37 -35 27 -67 32 -67 9 0 -5 18 -25 39 -44 72 -65 174 -73 261 -19
46 28 61 55 41 75 -8 8 -19 4 -38 -15 -26 -25 -71 -48 -94 -48 -5 0 -9 34 -9
75 0 51 4 75 12 75 13 0 126 85 145 110 7 8 13 27 13 43 0 34 8 34 76 0 113
-55 184 -147 184 -239 0 -85 -72 -180 -178 -233 -291 -147 -722 -7 -722 234 0
93 70 184 184 239 64 32 76 32 76 2z"/>
<path d="M871 1503 c-46 -58 24 -128 82 -82 32 25 35 61 7 89 -28 28 -64 25
-89 -7z"/>
<path d="M1637 1512 c-46 -51 8 -131 66 -101 29 16 37 28 37 60 0 52 -69 79
-103 41z"/>
</g>
</svg>
